# Blender v2.83.0 OBJ File: 'untitled.blend'
# www.blender.org
mtllib pasto.mtl
o Pasto_Plane.017
v 0.180332 0.673980 -0.208196
v 0.046168 0.037287 -0.053302
v 0.081651 0.594281 -0.094267
v -0.046168 -0.037287 0.053302
v 0.162596 1.184216 -0.187719
v 0.111288 1.142778 -0.128483
v 0.198518 1.331221 -0.229192
v 0.162458 1.302098 -0.187560
v 0.248999 1.400638 -0.287473
v 0.248999 1.400638 -0.287473
v 0.558541 0.467061 0.000000
v 0.079768 0.000000 0.000000
v 0.388043 0.467061 0.000000
v -0.079768 0.000000 -0.000000
v 0.773101 0.930784 0.000000
v 0.684453 0.930784 0.000000
v 0.890322 1.035092 0.000000
v 0.828019 1.035092 0.000000
v 0.990932 1.060416 0.000000
v 0.990932 1.060416 0.000000
v 0.394948 0.467061 -0.394948
v 0.056405 0.000000 -0.056405
v 0.274388 0.467061 -0.274388
v -0.056405 0.000000 0.056405
v 0.546665 0.930784 -0.546665
v 0.483981 0.930784 -0.483981
v 0.629552 1.035092 -0.629552
v 0.585498 1.035092 -0.585498
v 0.700695 1.060416 -0.700695
v 0.700695 1.060416 -0.700695
v -0.172599 0.467061 -0.531204
v -0.024650 0.000000 -0.075864
v -0.119912 0.467061 -0.369051
v 0.024650 0.000000 0.075864
v -0.238901 0.930784 -0.735263
v -0.211508 0.930784 -0.650953
v -0.275125 1.035092 -0.846746
v -0.255872 1.035092 -0.787493
v -0.306215 1.060416 -0.942432
v -0.306215 1.060416 -0.942432
v -0.351501 0.467061 -0.434068
v -0.050200 0.000000 -0.061992
v -0.244203 0.467061 -0.301566
v 0.050200 0.000000 0.061992
v -0.486528 0.930784 -0.600813
v -0.430740 0.930784 -0.531920
v -0.560297 1.035092 -0.691910
v -0.521089 1.035092 -0.643491
v -0.623613 1.060416 -0.770099
v -0.623613 1.060416 -0.770099
v -0.488511 0.467061 0.270786
v -0.069767 0.000000 0.038672
v -0.339390 0.467061 0.188127
v 0.069767 0.000000 -0.038672
v -0.676170 0.930784 0.374807
v -0.598636 0.930784 0.331829
v -0.778693 1.035092 0.431637
v -0.724202 1.035092 0.401432
v -0.866688 1.060416 0.480413
v -0.866688 1.060416 0.480413
v -0.366436 0.467061 0.421537
v -0.052333 0.000000 0.060202
v -0.254579 0.467061 0.292860
v 0.052333 0.000000 -0.060202
v -0.507200 0.930784 0.583467
v -0.449041 0.930784 0.516563
v -0.584103 1.035092 0.671934
v -0.543229 1.035092 0.624914
v -0.650110 1.060416 0.747866
v -0.650110 1.060416 0.747866
v 0.270786 0.467061 0.488511
v 0.038672 0.000000 0.069767
v 0.188127 0.467061 0.339390
v -0.038672 0.000000 -0.069767
v 0.374807 0.930784 0.676170
v 0.331830 0.930784 0.598636
v 0.431637 1.035092 0.778693
v 0.401432 1.035092 0.724201
v 0.480414 1.060416 0.866688
v 0.480414 1.060416 0.866688
v 0.459891 0.467061 0.316968
v 0.065679 0.000000 0.045268
v 0.319506 0.467061 0.220211
v -0.065679 0.000000 -0.045268
v 0.636555 0.930784 0.438729
v 0.563564 0.930784 0.388422
v 0.733072 1.035092 0.505251
v 0.681773 1.035092 0.469894
v 0.815912 1.060416 0.562346
v 0.815912 1.060416 0.562346
v 0.000102 0.467061 0.558541
v 0.000015 0.000000 0.079768
v 0.000071 0.467061 0.388043
v -0.000015 0.000000 -0.079768
v 0.000141 0.930784 0.773101
v 0.000125 0.930784 0.684453
v 0.000162 1.035092 0.890322
v 0.000151 1.035092 0.828019
v 0.000180 1.060416 0.990932
v 0.000180 1.060416 0.990932
v 0.000102 0.594817 0.419889
v 0.000015 0.020482 0.077094
v 0.000071 0.551039 0.255107
v -0.000015 -0.020482 -0.077094
v 0.000141 1.098086 0.508186
v 0.000125 1.075323 0.422510
v 0.000162 1.228995 0.594693
v 0.000151 1.212997 0.534479
v 0.000181 1.279303 0.685428
v 0.000181 1.279303 0.685428
v 0.297622 0.594817 0.296189
v 0.054642 0.020482 0.054385
v 0.180829 0.551039 0.179946
v -0.054642 -0.020482 -0.054385
v 0.360220 1.098086 0.358461
v 0.299495 1.075323 0.298022
v 0.421538 1.228995 0.419483
v 0.378860 1.212997 0.377006
v 0.485849 1.279303 0.483490
v 0.485849 1.279303 0.483490
v 0.408508 0.594818 -0.097097
v 0.075005 0.020482 -0.017823
v 0.248190 0.551039 -0.059000
v -0.075005 -0.020482 0.017823
v 0.494408 1.098086 -0.117532
v 0.411053 1.075323 -0.097724
v 0.578570 1.228995 -0.137537
v 0.519988 1.212997 -0.123616
v 0.666847 1.279303 -0.158515
v 0.666847 1.279303 -0.158515
v 0.157701 0.594817 -0.389149
v 0.028959 0.020482 -0.071448
v 0.095804 0.551039 -0.236434
v -0.028959 -0.020482 0.071448
v 0.190847 1.098086 -0.470989
v 0.158664 1.075323 -0.391586
v 0.223336 1.228995 -0.551163
v 0.200718 1.212997 -0.495358
v 0.257418 1.279303 -0.635254
v 0.257418 1.279303 -0.635254
v -0.209274 0.594817 -0.364021
v -0.038420 0.020482 -0.066838
v -0.127154 0.551039 -0.221159
v 0.038420 -0.020482 0.066838
v -0.253297 1.098086 -0.440561
v -0.210600 1.075323 -0.366282
v -0.296413 1.228995 -0.515558
v -0.266405 1.212997 -0.463354
v -0.341632 1.279303 -0.594221
v -0.341632 1.279303 -0.594221
v -0.408716 0.594817 -0.096218
v -0.075041 0.020482 -0.017670
v -0.248320 0.551039 -0.058449
v 0.075042 -0.020482 0.017670
v -0.494668 1.098086 -0.116434
v -0.411272 1.075323 -0.096797
v -0.578873 1.228995 -0.136257
v -0.520262 1.212997 -0.122456
v -0.667193 1.279303 -0.157052
v -0.667193 1.279303 -0.157052
v -0.555541 0.452084 -0.130800
v -0.077617 -0.002116 -0.018278
v -0.389641 0.456605 -0.091733
v 0.077617 0.002116 0.018278
v -0.776291 0.909953 -0.182761
v -0.690033 0.912304 -0.162449
v -0.893044 1.011116 -0.210250
v -0.832422 1.012768 -0.195974
v -0.991595 1.033762 -0.233456
v -0.991595 1.033762 -0.233456
v -0.180702 0.673980 0.207875
v -0.046263 0.037287 0.053220
v -0.081818 0.594281 0.094121
v 0.046263 -0.037287 -0.053220
v -0.162930 1.184216 0.187430
v -0.111516 1.142778 0.128285
v -0.198926 1.331221 0.228838
v -0.162792 1.302098 0.187271
v -0.249510 1.400638 0.287029
v -0.249510 1.400638 0.287029
v -0.050000 0.000000 0.000000
v 0.050000 0.000000 -0.000000
v -0.065994 0.342428 0.000000
v 0.065994 0.342428 0.000000
v -0.040469 0.850729 0.000000
v 0.040469 0.850729 0.000000
v -0.008094 0.934124 0.000000
v 0.008094 0.934124 0.000000
vt 2.135728 -0.484946
vt 2.232325 -1.463574
vt 2.394045 -1.604503
vt 2.308560 -0.635559
vt 2.394045 0.178003
vt 2.304183 0.256312
vt 2.335329 0.428927
vt 2.272172 0.483963
vt 2.191262 0.602968
vt 2.191262 0.602968
vt 1.023931 -0.506468
vt 1.130861 -1.467314
vt 1.309880 -1.604503
vt 1.215251 -0.653084
vt 1.309879 0.147019
vt 1.210405 0.223250
vt 1.244882 0.393113
vt 1.174971 0.446689
vt 1.085405 0.562979
vt 1.085405 0.562979
vt 1.580787 -0.537205
vt 1.684609 -1.477337
vt 1.858425 -1.604503
vt 1.766546 -0.673110
vt 1.858425 0.117669
vt 1.761841 0.188331
vt 1.795316 0.356834
vt 1.727437 0.406496
vt 1.640474 0.516973
vt 1.640474 0.516973
vt -0.128403 -0.478667
vt -0.018851 -1.458303
vt 0.164559 -1.604503
vt 0.067609 -0.634912
vt 0.164559 0.173740
vt 0.062645 0.254978
vt 0.097967 0.426100
vt 0.026341 0.483195
vt -0.065421 0.604721
vt -0.065421 0.604721
vt -0.421904 -0.476455
vt -0.312150 -1.457589
vt -0.128403 -1.604503
vt -0.225531 -0.633464
vt -0.128403 0.175874
vt -0.230505 0.257509
vt -0.195117 0.428733
vt -0.266875 0.486106
vt -0.358806 0.608047
vt -0.358806 0.608047
vt -1.012326 -0.468133
vt -0.901823 -1.454902
vt -0.716820 -1.604503
vt -0.814612 -0.628013
vt -0.716820 0.183907
vt -0.819620 0.267034
vt -0.783990 0.438641
vt -0.856238 0.497063
vt -0.948798 0.620567
vt -0.948798 0.620567
vt 0.451308 -0.489728
vt 0.559837 -1.461882
vt 0.741532 -1.604503
vt 0.645489 -0.642148
vt 0.741532 0.163091
vt 0.640571 0.242340
vt 0.675563 0.412957
vt 0.604606 0.468654
vt 0.513701 0.588099
vt 0.513701 0.588099
vt -1.308304 -0.466154
vt -1.197624 -1.454264
vt -1.012326 -1.604503
vt -1.110274 -0.626717
vt -1.012326 0.185819
vt -1.115289 0.269301
vt -1.079603 0.440999
vt -1.151967 0.499670
vt -1.244674 0.623545
vt -1.244674 0.623545
vt 1.858425 1.560929
vt 1.959928 0.635269
vt 2.129863 0.515159
vt 2.040037 1.432567
vt 2.129864 2.216894
vt 2.035437 2.283634
vt 2.068164 2.451206
vt 2.001801 2.498112
vt 1.916780 2.604503
vt 1.916780 2.604503
vt 1.858425 -0.538417
vt 1.962121 -1.477731
vt 2.135728 -1.604503
vt 2.043960 -0.673899
vt 2.135728 0.116511
vt 2.039261 0.186953
vt 2.072696 0.355404
vt 2.004898 0.404911
vt 1.918040 0.515159
vt 1.918040 0.515159
vt 1.309880 -0.505479
vt 1.411184 -1.469874
vt 1.580787 -1.604503
vt 1.491135 -0.649359
vt 1.580787 0.157140
vt 1.486545 0.231948
vt 1.519208 0.403438
vt 1.452974 0.456014
vt 1.368120 0.571299
vt 1.368120 0.571299
vt 0.741532 -0.487813
vt 0.847134 -1.462885
vt 1.023931 -1.604503
vt 0.930477 -0.639162
vt 1.023931 0.170098
vt 0.925692 0.248790
vt 0.959740 0.420386
vt 0.890697 0.475692
vt 0.802243 0.594826
vt 0.802243 0.594826
vt -0.716820 -0.467315
vt -0.606537 -1.454798
vt -0.421904 -1.604503
vt -0.519500 -0.627307
vt -0.421904 0.185204
vt -0.524498 0.268390
vt -0.488939 0.440121
vt -0.561043 0.498585
vt -0.653418 0.622176
vt -0.653418 0.622176
vt 2.394045 1.486336
vt 2.471072 0.571181
vt 2.600028 0.469128
vt 2.531862 1.377270
vt 2.600028 2.171419
vt 2.528372 2.228126
vt 2.553207 2.399239
vt 2.502846 2.439093
vt 2.438328 2.536465
vt 2.438328 2.536465
vt -1.604503 -0.465143
vt -1.493741 -1.453942
vt -1.308304 -1.604503
vt -1.406325 -0.626050
vt -1.308304 0.186808
vt -1.411344 0.270470
vt -1.375631 0.442216
vt -1.448049 0.501014
vt -1.540825 0.625077
vt -1.540825 0.625077
vt 2.394045 -0.582534
vt 2.472745 -1.500547
vt 2.604503 -1.604503
vt 2.534856 -0.693634
vt 2.604503 0.101218
vt 2.531290 0.158982
vt 2.556665 0.330113
vt 2.505210 0.370710
vt 2.439290 0.469128
vt 2.439290 0.469128
vt 1.580787 1.425392
vt 1.666328 0.592697
vt 1.809540 0.516973
vt 1.733839 1.344465
vt 1.809540 2.086275
vt 1.729962 2.128351
vt 1.757543 2.289631
vt 1.701616 2.319203
vt 1.629965 2.399784
vt 1.629965 2.399784
vt 0.164559 -0.470333
vt 0.271788 -1.456468
vt 0.451308 -1.604503
vt 0.356415 -0.628539
vt 0.451308 0.184509
vt 0.351555 0.266766
vt 0.386129 0.438742
vt 0.316022 0.496553
vt 0.226205 0.619289
vt 0.226205 0.619289
vt 1.043834 0.562979
vt 1.168266 0.562979
vt 1.188167 1.072319
vt 1.023931 1.072319
vt 1.156404 1.828382
vt 1.055692 1.828382
vt 1.116119 1.952428
vt 1.095976 1.952428
vn -0.7559 -0.0000 -0.6547
vn -0.0000 0.0000 -1.0000
vn -0.7071 0.0000 -0.7071
vn -0.9511 0.0000 0.3090
vn -0.7771 0.0000 0.6293
vn 0.4848 -0.0000 0.8746
vn 0.7547 -0.0000 0.6561
vn 0.8746 0.0000 -0.4848
vn 0.5675 0.0000 -0.8234
vn 1.0000 -0.0000 -0.0002
vn 0.7054 -0.0000 -0.7088
vn -0.2312 -0.0000 -0.9729
vn -0.2312 -0.0001 -0.9729
vn -0.9268 -0.0000 -0.3756
vn -0.9268 -0.0001 -0.3756
vn -0.8670 -0.0000 0.4983
vn -0.2292 -0.0000 0.9734
vn 0.0000 -0.0000 1.0000
usemtl pastoMat
s off
f 1/1/1 2/2/1 4/3/1 3/4/1
f 1/1/1 3/4/1 6/5/1 5/6/1
f 5/6/1 6/5/1 8/7/1 7/8/1
f 7/8/1 8/7/1 10/9/1 9/10/1
f 11/11/2 12/12/2 14/13/2 13/14/2
f 11/11/2 13/14/2 16/15/2 15/16/2
f 15/16/2 16/15/2 18/17/2 17/18/2
f 17/18/2 18/17/2 20/19/2 19/20/2
f 21/21/3 22/22/3 24/23/3 23/24/3
f 21/21/3 23/24/3 26/25/3 25/26/3
f 25/26/3 26/25/3 28/27/3 27/28/3
f 27/28/3 28/27/3 30/29/3 29/30/3
f 31/31/4 32/32/4 34/33/4 33/34/4
f 31/31/4 33/34/4 36/35/4 35/36/4
f 35/36/4 36/35/4 38/37/4 37/38/4
f 37/38/4 38/37/4 40/39/4 39/40/4
f 41/41/5 42/42/5 44/43/5 43/44/5
f 41/41/5 43/44/5 46/45/5 45/46/5
f 45/46/5 46/45/5 48/47/5 47/48/5
f 47/48/5 48/47/5 50/49/5 49/50/5
f 51/51/6 52/52/6 54/53/6 53/54/6
f 51/51/6 53/54/6 56/55/6 55/56/6
f 55/56/6 56/55/6 58/57/6 57/58/6
f 57/58/6 58/57/6 60/59/6 59/60/6
f 61/61/7 62/62/7 64/63/7 63/64/7
f 61/61/7 63/64/7 66/65/7 65/66/7
f 65/66/7 66/65/7 68/67/7 67/68/7
f 67/68/7 68/67/7 70/69/7 69/70/7
f 71/71/8 72/72/8 74/73/8 73/74/8
f 71/71/8 73/74/8 76/75/8 75/76/8
f 75/76/8 76/75/8 78/77/8 77/78/8
f 77/78/8 78/77/8 80/79/8 79/80/8
f 81/81/9 82/82/9 84/83/9 83/84/9
f 81/81/9 83/84/9 86/85/9 85/86/9
f 85/86/9 86/85/9 88/87/9 87/88/9
f 87/88/9 88/87/9 90/89/9 89/90/9
f 91/91/10 92/92/10 94/93/10 93/94/10
f 91/91/10 93/94/10 96/95/10 95/96/10
f 95/96/10 96/95/10 98/97/10 97/98/10
f 97/98/10 98/97/10 100/99/10 99/100/10
f 101/101/10 102/102/10 104/103/10 103/104/10
f 101/101/10 103/104/10 106/105/10 105/106/10
f 105/106/10 106/105/10 108/107/10 107/108/10
f 107/108/10 108/107/10 110/109/10 109/110/10
f 111/111/11 112/112/11 114/113/11 113/114/11
f 111/111/11 113/114/11 116/115/11 115/116/11
f 115/116/11 116/115/11 118/117/11 117/118/11
f 117/118/11 118/117/11 120/119/11 119/120/11
f 121/121/12 122/122/12 124/123/12 123/124/12
f 121/121/12 123/124/12 126/125/12 125/126/12
f 125/126/12 126/125/12 128/127/12 127/128/12
f 127/128/13 128/127/13 130/129/13 129/130/13
f 131/131/14 132/132/14 134/133/14 133/134/14
f 131/131/14 133/134/14 136/135/14 135/136/14
f 135/136/14 136/135/14 138/137/14 137/138/14
f 137/138/15 138/137/15 140/139/15 139/140/15
f 141/141/16 142/142/16 144/143/16 143/144/16
f 141/141/16 143/144/16 146/145/16 145/146/16
f 145/146/16 146/145/16 148/147/16 147/148/16
f 147/148/16 148/147/16 150/149/16 149/150/16
f 151/151/17 152/152/17 154/153/17 153/154/17
f 151/151/17 153/154/17 156/155/17 155/156/17
f 155/156/17 156/155/17 158/157/17 157/158/17
f 157/158/17 158/157/17 160/159/17 159/160/17
f 161/161/17 162/162/17 164/163/17 163/164/17
f 161/161/17 163/164/17 166/165/17 165/166/17
f 165/166/17 166/165/17 168/167/17 167/168/17
f 167/168/17 168/167/17 170/169/17 169/170/17
f 171/171/7 172/172/7 174/173/7 173/174/7
f 171/171/7 173/174/7 176/175/7 175/176/7
f 175/176/7 176/175/7 178/177/7 177/178/7
f 177/178/7 178/177/7 180/179/7 179/180/7
f 181/181/18 182/182/18 184/183/18 183/184/18
f 183/184/18 184/183/18 186/185/18 185/186/18
f 185/186/18 186/185/18 188/187/18 187/188/18
